<?xml version="1.0" encoding="UTF-8"?><svg id="a" xmlns="http://www.w3.org/2000/svg" viewBox="0 0 894.18 240.95"><path d="M141.81,127.24c.14-27.52,8.28-51.27,22.7-69.62V24.94h-26.4v84.6H40.31V24.94H14.21v202.2h26.1v-94.8h97.8v94.8h26.4v-28.39c-14.53-18.31-22.7-43.73-22.7-71.51Z" fill="#fff"/><path d="M243.24,207.13c-41.32-4.11-67.83-33.58-67.83-81.09,0-50.7,32.1-81.3,81.3-81.3,20.4,0,33.9,3.9,44.7,8.7l6.3-21.3c-8.7-4.2-27-9.3-50.4-9.3-67.8,0-109.2,44.1-109.5,104.4,0,31.5,10.8,58.5,28.2,75.3,17.96,17.15,40.37,25.16,67.23,26.5v-21.91Z" fill="#fff"/><path d="M247.11,120.94v20.92s.08.06.12.08h40.98v60.3c-6,3-17.7,5.4-34.8,5.4-1.75,0-3.47-.06-5.17-.14v21.7c1.12.02,2.24.04,3.37.04,27.3,0,50.4-6.9,62.1-11.1v-97.2h-66.6Z" fill="#fff"/><path d="M251.23,198.05c-40.34-.98-72.32-37.14-69.02-77.26,1.88-29.21,23.12-55.69,51.26-63.73,9.23-2.71,18.98-3.54,28.47-2.42-28.72-2.49-57.46,13.52-70.24,39.23-23.25,45.89,8.3,100.61,59.54,104.19h0Z" fill="#fff"/><path d="M332.32,110.7v-62.05h8.86v62.05h-8.86ZM340.3,83.04v-7.71h37.32v7.71h-37.32ZM376.82,110.7v-62.05h8.86v62.05h-8.86Z" fill="#fff"/><path d="M405.8,110.7l28.1-62.05h8.78l28.19,62.05h-9.31l-25.09-57.09h3.55l-25.09,57.09h-9.13ZM417.77,95.19l2.39-7.09h34.93l2.57,7.09h-39.89Z" fill="#fff"/><path d="M490.99,110.7v-62.05h24.2c8.04,0,14.36,1.91,18.97,5.72s6.91,9.12,6.91,15.91c0,4.49-1.03,8.35-3.1,11.57-2.07,3.22-5.02,5.69-8.86,7.4-3.84,1.71-8.48,2.57-13.92,2.57h-19.33l3.99-4.08v22.96h-8.86ZM499.85,88.63l-3.99-4.34h19.06c5.67,0,9.97-1.23,12.9-3.68,2.92-2.45,4.39-5.9,4.39-10.33s-1.46-7.86-4.39-10.28c-2.93-2.42-7.22-3.63-12.9-3.63h-19.06l3.99-4.43v36.7ZM532.48,110.7l-15.78-22.52h9.48l15.96,22.52h-9.66Z" fill="#fff"/><path d="M566.34,110.7v-62.05h8.86v54.34h33.6v7.71h-42.46Z" fill="#fff"/><path d="M629.89,110.7v-62.05h43.79v7.71h-34.93v46.63h36.17v7.71h-45.03ZM637.96,82.95v-7.53h31.91v7.53h-31.91Z" fill="#fff"/><path d="M714.46,110.7v-23.76l2.04,5.5-26.68-43.79h9.49l22.43,36.96h-5.14l22.52-36.96h8.78l-26.59,43.79,1.95-5.5v23.76h-8.78Z" fill="#fff"/><path d="M360.33,217.78c-4.79,0-9.19-.78-13.21-2.35-4.02-1.57-7.51-3.78-10.46-6.65-2.96-2.87-5.26-6.22-6.91-10.06-1.65-3.84-2.48-8.07-2.48-12.68s.83-8.83,2.48-12.68c1.65-3.84,3.97-7.19,6.96-10.06,2.98-2.87,6.49-5.08,10.5-6.65,4.02-1.57,8.45-2.35,13.3-2.35s9.4.8,13.47,2.39,7.53,3.99,10.37,7.18l-5.5,5.5c-2.54-2.48-5.31-4.3-8.29-5.45-2.98-1.15-6.22-1.73-9.71-1.73s-6.84.59-9.88,1.77c-3.04,1.18-5.67,2.84-7.89,4.96-2.22,2.13-3.93,4.65-5.14,7.58-1.21,2.92-1.82,6.1-1.82,9.53s.61,6.52,1.82,9.44c1.21,2.93,2.93,5.47,5.14,7.62,2.22,2.16,4.83,3.83,7.84,5.01,3.01,1.18,6.29,1.77,9.84,1.77,3.31,0,6.48-.52,9.53-1.55,3.04-1.03,5.86-2.76,8.47-5.19l5.05,6.74c-3.07,2.6-6.66,4.57-10.77,5.9-4.11,1.33-8.35,1.99-12.72,1.99ZM383.82,209.89l-8.51-1.15v-23.05h8.51v24.2Z" fill="#fff"/><path d="M402.26,217.07l28.1-62.05h8.78l28.19,62.05h-9.31l-25.09-57.09h3.55l-25.09,57.09h-9.13ZM414.22,201.56l2.39-7.09h34.93l2.57,7.09h-39.89Z" fill="#fff"/><path d="M487.44,217.07v-62.05h24.2c8.04,0,14.36,1.91,18.97,5.72,4.61,3.81,6.91,9.12,6.91,15.91,0,4.49-1.03,8.35-3.1,11.57-2.07,3.22-5.02,5.69-8.86,7.4-3.84,1.71-8.48,2.57-13.92,2.57h-19.33l3.99-4.08v22.96h-8.86ZM496.31,195l-3.99-4.34h19.06c5.67,0,9.97-1.23,12.9-3.68,2.92-2.45,4.39-5.89,4.39-10.33s-1.46-7.86-4.39-10.28c-2.93-2.42-7.22-3.63-12.9-3.63h-19.06l3.99-4.43v36.7ZM528.93,217.07l-15.78-22.52h9.48l15.96,22.52h-9.66Z" fill="#fff"/><path d="M562.79,217.07v-62.05h24.2c8.04,0,14.36,1.91,18.97,5.72,4.61,3.81,6.91,9.12,6.91,15.91,0,4.49-1.03,8.35-3.1,11.57-2.07,3.22-5.02,5.69-8.86,7.4-3.84,1.71-8.48,2.57-13.92,2.57h-19.33l3.99-4.08v22.96h-8.86ZM571.66,195l-3.99-4.34h19.06c5.67,0,9.97-1.23,12.9-3.68,2.92-2.45,4.39-5.89,4.39-10.33s-1.46-7.86-4.39-10.28c-2.93-2.42-7.22-3.63-12.9-3.63h-19.06l3.99-4.43v36.7ZM604.28,217.07l-15.78-22.52h9.48l15.96,22.52h-9.66Z" fill="#fff"/><path d="M638.14,217.07v-62.05h8.86v62.05h-8.86Z" fill="#fff"/><path d="M694.6,217.78c-4.73,0-9.25-.72-13.56-2.17-4.31-1.45-7.71-3.32-10.19-5.63l3.28-6.91c2.36,2.07,5.38,3.78,9.04,5.14,3.66,1.36,7.48,2.04,11.43,2.04,3.6,0,6.53-.41,8.78-1.24,2.25-.83,3.9-1.96,4.96-3.41,1.06-1.45,1.6-3.09,1.6-4.92,0-2.13-.7-3.84-2.08-5.14-1.39-1.3-3.19-2.35-5.41-3.15s-4.65-1.49-7.31-2.08c-2.66-.59-5.33-1.29-8.02-2.08-2.69-.8-5.14-1.82-7.36-3.06-2.22-1.24-4-2.91-5.36-5.01-1.36-2.1-2.04-4.8-2.04-8.11s.84-6.13,2.53-8.82c1.68-2.69,4.28-4.84,7.8-6.47,3.51-1.62,7.99-2.44,13.43-2.44,3.6,0,7.18.47,10.73,1.42,3.55.95,6.62,2.3,9.22,4.08l-2.92,7.09c-2.66-1.77-5.47-3.06-8.42-3.86s-5.82-1.2-8.6-1.2c-3.49,0-6.35.44-8.6,1.33-2.25.89-3.89,2.07-4.92,3.55-1.04,1.48-1.55,3.13-1.55,4.96,0,2.19.69,3.93,2.08,5.23,1.39,1.3,3.19,2.34,5.41,3.1,2.22.77,4.65,1.46,7.31,2.08,2.66.62,5.33,1.32,8.02,2.08,2.69.77,5.14,1.77,7.36,3.01,2.22,1.24,4,2.9,5.36,4.96,1.36,2.07,2.04,4.73,2.04,7.98s-.86,6.04-2.57,8.73c-1.71,2.69-4.36,4.85-7.93,6.47-3.58,1.63-8.08,2.44-13.52,2.44Z" fill="#fff"/><path d="M770.48,217.78c-4.73,0-9.12-.8-13.16-2.39s-7.55-3.83-10.5-6.69c-2.96-2.87-5.26-6.22-6.91-10.06-1.66-3.84-2.48-8.04-2.48-12.59s.83-8.75,2.48-12.59c1.65-3.84,3.96-7.19,6.91-10.06,2.95-2.87,6.44-5.1,10.46-6.69,4.02-1.6,8.42-2.39,13.21-2.39s9.1.78,13.12,2.35c4.02,1.57,7.5,3.78,10.46,6.65,2.96,2.87,5.24,6.24,6.87,10.11,1.62,3.87,2.44,8.08,2.44,12.63s-.81,8.83-2.44,12.68c-1.63,3.84-3.92,7.2-6.87,10.06-2.96,2.87-6.44,5.08-10.46,6.65-4.02,1.57-8.39,2.35-13.12,2.35ZM770.39,209.89c3.49,0,6.69-.59,9.62-1.77,2.92-1.18,5.47-2.85,7.62-5.01,2.16-2.16,3.84-4.68,5.05-7.58,1.21-2.89,1.82-6.06,1.82-9.48s-.61-6.57-1.82-9.44c-1.21-2.87-2.9-5.39-5.05-7.58-2.16-2.19-4.7-3.87-7.62-5.05-2.93-1.18-6.13-1.77-9.62-1.77s-6.6.59-9.53,1.77c-2.92,1.18-5.48,2.87-7.67,5.05-2.19,2.19-3.89,4.71-5.1,7.58-1.21,2.87-1.82,6.01-1.82,9.44s.61,6.59,1.82,9.48c1.21,2.9,2.91,5.42,5.1,7.58,2.19,2.16,4.74,3.83,7.67,5.01,2.93,1.18,6.1,1.77,9.53,1.77Z" fill="#fff"/><path d="M827.84,217.07v-62.05h7.27l41.04,50.97h-3.81v-50.97h8.86v62.05h-7.27l-41.04-50.97h3.81v50.97h-8.86Z" fill="#fff"/></svg>